<svg xmlns="http://www.w3.org/2000/svg" xmlns:xlink="http://www.w3.org/1999/xlink" width="227" height="42" viewBox="0 0 227 42">
  <defs>
    <clipPath id="clip-path">
      <rect id="Rectangle_5171" data-name="Rectangle 5171" width="227" height="42" transform="translate(3844 1225)" fill="#fff" stroke="#707070" stroke-width="1"/>
    </clipPath>
  </defs>
  <g id="mi_logo" transform="translate(-3844 -1225)" clip-path="url(#clip-path)">
    <g id="Group_30889" data-name="Group 30889" transform="translate(-9.53 -42.4)">
      <path id="Path_49610" data-name="Path 49610" d="M39.106,28.692H32.027V6.748a47.6,47.6,0,0,1,.236-4.955q-.708,2.124-1.888,5.073L20.347,29.4,10.319,6.748Q9.258,4.389,8.373,1.793a47.6,47.6,0,0,1,.236,4.955V28.692H1.53V-12.6H8.668L19.286,11.644q.649,1.652,1.121,3.067.472-1.416,1.121-3.067L32.2-12.6h6.9Z" transform="translate(3852 1280)" fill="#18181b"/>
      <path id="Path_49609" data-name="Path 49609" d="M1.62,28.692V-12.6H8.7V28.692Z" transform="translate(3901.362 1280)" fill="#5eb4fe"/>
    </g>
  </g>
</svg>
