<svg xmlns="http://www.w3.org/2000/svg" width="16" height="16" viewBox="0 0 16 16">
  <path id="aboutus" d="M8.4.4a8,8,0,1,0,8,8,8,8,0,0,0-8-8Zm.747,2.888a.881.881,0,0,1,1.009.97A1.286,1.286,0,0,1,8.756,5.5c-.738,0-1.09-.371-1.068-.985A1.32,1.32,0,0,1,9.146,3.288Zm-2,9.9c-.533,0-.922-.324-.55-1.745l.611-2.521c.106-.4.123-.565,0-.565a4.052,4.052,0,0,0-1.26.553l-.266-.436A7.088,7.088,0,0,1,9.106,6.76c.533,0,.622.63.356,1.6l-.7,2.65c-.124.468-.071.63.053.63a2.746,2.746,0,0,0,1.2-.6l.3.4a5.569,5.569,0,0,1-3.167,1.745Z" transform="translate(-0.399 -0.4)" fill="#707070"/>
</svg>
