<svg xmlns="http://www.w3.org/2000/svg" xmlns:xlink="http://www.w3.org/1999/xlink" width="24" height="24" viewBox="0 0 24 24">
  <defs>
    <clipPath id="clip-path">
      <rect id="Rectangle_5407" data-name="Rectangle 5407" width="24" height="24" transform="translate(-5474 -4116)" fill="#5eb4fe" stroke="#707070" stroke-width="1"/>
    </clipPath>
  </defs>
  <g id="ic_settings" transform="translate(5474 4116)" clip-path="url(#clip-path)">
    <g id="icons" transform="translate(-5470.629 -4112.614)">
      <path id="settings" d="M16.159,10.337l-.861-.5a1.477,1.477,0,0,1,0-2.512l.861-.5a1.364,1.364,0,0,0,.5-1.938l-.718-1.22a1.364,1.364,0,0,0-1.938-.5l-.861.5a1.432,1.432,0,0,1-2.153-1.22v-1A1.44,1.44,0,0,0,9.555,0H8.119A1.44,1.44,0,0,0,6.684,1.436v.933A1.432,1.432,0,0,1,4.53,3.589l-.861-.431a1.392,1.392,0,0,0-1.938.5l-.718,1.22a1.565,1.565,0,0,0,.5,2.01l.861.5a1.414,1.414,0,0,1,0,2.441l-.861.5a1.364,1.364,0,0,0-.5,1.938l.718,1.22a1.364,1.364,0,0,0,1.938.5l.861-.431a1.432,1.432,0,0,1,2.153,1.22v1a1.44,1.44,0,0,0,1.436,1.436H9.555a1.44,1.44,0,0,0,1.436-1.436v-.933a1.432,1.432,0,0,1,2.153-1.22l.861.5a1.392,1.392,0,0,0,1.938-.5l.718-1.22A1.638,1.638,0,0,0,16.159,10.337ZM8.837,11.485a2.871,2.871,0,1,1,2.871-2.871A2.88,2.88,0,0,1,8.837,11.485Z" transform="translate(0)" fill="#5eb4fe"/>
    </g>
  </g>
</svg>
