<svg xmlns="http://www.w3.org/2000/svg" width="18" height="18" viewBox="0 0 18 18">
  <g id="Group_2" data-name="Group 2" transform="translate(-697 -289)">
    <path id="aboutus" d="M9.4.4a9,9,0,1,0,9,9,9,9,0,0,0-9-9Zm.84,3.249A.991.991,0,0,1,11.375,4.74,1.447,1.447,0,0,1,9.8,6.137c-.83,0-1.226-.417-1.2-1.108a1.485,1.485,0,0,1,1.64-1.38ZM7.99,14.786c-.6,0-1.037-.365-.619-1.963l.687-2.836c.119-.45.138-.636,0-.636a4.558,4.558,0,0,0-1.417.622l-.3-.491a7.974,7.974,0,0,1,3.852-1.928c.6,0,.7.709.4,1.8l-.787,2.981c-.139.526-.08.709.06.709a3.089,3.089,0,0,0,1.35-.675l.338.45a6.265,6.265,0,0,1-3.563,1.963Z" transform="translate(696.6 288.6)" fill="#241549"/>
  </g>
</svg>
