<svg xmlns="http://www.w3.org/2000/svg" xmlns:xlink="http://www.w3.org/1999/xlink" width="18" height="18" viewBox="0 0 18 18">
  <defs>
    <clipPath id="clip-path">
      <rect id="Rectangle_5" data-name="Rectangle 5" width="18" height="18" transform="translate(0 0)" fill="#241549" stroke="#707070" stroke-width="1"/>
    </clipPath>
  </defs>
  <g id="ic_dashboard" transform="translate(0 0)">
    <g id="Mask_Group_1" data-name="Mask Group 1" transform="translate(0 0)" clip-path="url(#clip-path)">
      <g id="Icons" transform="translate(-1.667 -1.667)">
        <g id="Rounded" transform="translate(0)">
          <g id="Action">
            <g id="_-Round-_-Action-_-dashboard" data-name="-Round-/-Action-/-dashboard">
              <g id="Group_1" data-name="Group 1">
                <path id="Path" d="M0,0H21.334V21.334H0Z" fill="none"/>
                <path id="_Icon-Color" data-name="🔹Icon-Color" d="M2.889,10.889H8.222A.892.892,0,0,0,9.111,10V2.889A.892.892,0,0,0,8.222,2H2.889A.892.892,0,0,0,2,2.889V10A.892.892,0,0,0,2.889,10.889Zm0,7.111H8.222a.892.892,0,0,0,.889-.889V13.556a.892.892,0,0,0-.889-.889H2.889A.892.892,0,0,0,2,13.556v3.556A.892.892,0,0,0,2.889,18Zm8.889,0h5.333A.892.892,0,0,0,18,17.111V10a.892.892,0,0,0-.889-.889H11.778a.892.892,0,0,0-.889.889v7.111A.892.892,0,0,0,11.778,18ZM10.889,2.889V6.445a.892.892,0,0,0,.889.889h5.333A.892.892,0,0,0,18,6.445V2.889A.892.892,0,0,0,17.111,2H11.778A.892.892,0,0,0,10.889,2.889Z" transform="translate(0.667 0.667)" fill="#241549"/>
              </g>
            </g>
          </g>
        </g>
      </g>
    </g>
    <g id="Mask_Group_3" data-name="Mask Group 3" transform="translate(0 0)" clip-path="url(#clip-path)">
      <g id="Icons-2" data-name="Icons" transform="translate(0.442 0.442)">
        <g id="Rounded-2" data-name="Rounded" transform="translate(0)">
          <g id="Action-2" data-name="Action">
            <g id="_-Round-_-Action-_-dashboard-2" data-name="-Round-/-Action-/-dashboard">
              <g id="Group_3" data-name="Group 3">
                <path id="Path-2" data-name="Path" d="M0,0H17.116V17.116H0Z" fill="none"/>
                <path id="_Icon-Color-2" data-name="🔹Icon-Color" d="M12.222,16.738H16.5a.715.715,0,0,0,.713-.713V10.32a.715.715,0,0,0-.713-.713H12.222a.715.715,0,0,0-.713.713v5.705A.715.715,0,0,0,12.222,16.738Z" transform="translate(-2.238 -1.762)" fill="#241549"/>
              </g>
            </g>
          </g>
        </g>
      </g>
    </g>
  </g>
</svg>
