<svg xmlns="http://www.w3.org/2000/svg" xmlns:xlink="http://www.w3.org/1999/xlink" width="16" height="16" viewBox="0 0 16 16">
  <defs>
    <clipPath id="clip-path">
      <rect id="Rectangle_4279" data-name="Rectangle 4279" width="16" height="16" transform="translate(0 -0.253)" fill="#af0000" stroke="#707070" stroke-width="1"/>
    </clipPath>
  </defs>
  <g id="logout" transform="translate(0 0.253)" clip-path="url(#clip-path)">
    <path id="_9240591021582793690" data-name="9240591021582793690" d="M6.531,13.555a.257.257,0,0,1-.021-.139c.007-.036-.018-.068-.071-.093s-.082-.043-.082-.057-.039-.025-.118-.032l-.118-.011H2.938a1.582,1.582,0,0,1-1.155-.479A1.576,1.576,0,0,1,1.3,11.589V4.4A1.635,1.635,0,0,1,2.938,2.77H6.205A.306.306,0,0,0,6.416,2.7a.346.346,0,0,0,.1-.2,1.647,1.647,0,0,0,.032-.239c0-.071,0-.161,0-.272s-.011-.175-.011-.2a.33.33,0,0,0-.325-.325H2.938a2.832,2.832,0,0,0-2.077.861A2.859,2.859,0,0,0,0,4.407v7.185a2.832,2.832,0,0,0,.861,2.077,2.832,2.832,0,0,0,2.077.861H6.205a.306.306,0,0,0,.211-.068.346.346,0,0,0,.1-.2,1.647,1.647,0,0,0,.032-.239c0-.071,0-.161,0-.272A1.659,1.659,0,0,1,6.531,13.555Zm9.276-6.012L10.255,1.991A.627.627,0,0,0,9.8,1.8a.641.641,0,0,0-.461.193.627.627,0,0,0-.193.458V5.387H4.572a.621.621,0,0,0-.458.193.629.629,0,0,0-.193.461V9.959a.659.659,0,0,0,.651.651H9.144v2.938a.65.65,0,0,0,1.112.458l5.551-5.551A.627.627,0,0,0,16,8,.6.6,0,0,0,15.807,7.542Z" transform="translate(0 0.004)" fill="#241549"/>
  </g>
</svg>
