<svg xmlns="http://www.w3.org/2000/svg" xmlns:xlink="http://www.w3.org/1999/xlink" width="24" height="24" viewBox="0 0 24 24">
  <defs>
    <clipPath id="clip-path">
      <rect id="Rectangle_5432" data-name="Rectangle 5432" width="24" height="24" transform="translate(362 695)" fill="#fff" stroke="#707070" stroke-width="1"/>
    </clipPath>
  </defs>
  <g id="notifications" transform="translate(-362 -695)" clip-path="url(#clip-path)">
    <g id="_933801041577437009_3_" data-name="933801041577437009 (3)" transform="translate(363.108 696.409)">
      <g id="Group_29203" data-name="Group 29203" transform="translate(2.436 0.8)">
        <path id="Path_48113" data-name="Path 48113" d="M17.213,16.466H4.573a1.4,1.4,0,0,1-1.24-.718A1.418,1.418,0,0,1,3.4,14.312l.718-1.11C5.291,11.44,5.148,9.416,5.148,7.327a5.744,5.744,0,0,1,11.488,0c0,2.089-.141,4.112,1.034,5.875l.718,1.11a1.418,1.418,0,0,1,.065,1.436A1.329,1.329,0,0,1,17.213,16.466Z" transform="translate(-2.436 -0.8)" fill="#fff"/>
      </g>
      <path id="Path_48114" data-name="Path 48114" d="M8.88,21.6a3.265,3.265,0,0,0,6.4,0Z" transform="translate(-1.186 -3.829)" fill="#fff"/>
    </g>
  </g>
</svg>
