<svg xmlns="http://www.w3.org/2000/svg" xmlns:xlink="http://www.w3.org/1999/xlink" width="24" height="24" viewBox="0 0 24 24">
  <defs>
    <clipPath id="clip-path">
      <rect id="Rectangle_5055" data-name="Rectangle 5055" width="24" height="24" fill="#fff" stroke="#707070" stroke-width="1"/>
    </clipPath>
  </defs>
  <g id="Mask_Group_610" data-name="Mask Group 610" clip-path="url(#clip-path)">
    <path id="XMLID_30_" d="M1.457,2.914A1.52,1.52,0,0,1,.416,2.477,1.45,1.45,0,0,1,0,1.457,1.642,1.642,0,0,1,.416.416,1.463,1.463,0,0,1,1.457,0a1.545,1.545,0,0,1,1.02.416,1.482,1.482,0,0,1,.437,1.041A1.494,1.494,0,0,1,1.457,2.914Zm6.222-.437a1.471,1.471,0,0,0,.437-1.02A1.56,1.56,0,0,0,7.679.416,1.45,1.45,0,0,0,6.66,0,1.6,1.6,0,0,0,5.619.416,1.463,1.463,0,0,0,5.2,1.457a1.545,1.545,0,0,0,.416,1.02,1.433,1.433,0,0,0,2.06,0Zm5.2,0a1.471,1.471,0,0,0,.437-1.02A1.56,1.56,0,0,0,12.882.416,1.45,1.45,0,0,0,11.862,0a1.6,1.6,0,0,0-1.041.416,1.463,1.463,0,0,0-.416,1.041,1.545,1.545,0,0,0,.416,1.02,1.433,1.433,0,0,0,2.06,0Z" transform="translate(13.457 5.34) rotate(90)"/>
  </g>
</svg>
