<svg xmlns="http://www.w3.org/2000/svg" xmlns:xlink="http://www.w3.org/1999/xlink" width="16.166" height="18" viewBox="0 0 16.166 18">
  <defs>
    <linearGradient id="linear-gradient" x1="0.5" y1="0.431" x2="0.5" y2="1" gradientUnits="objectBoundingBox">
      <stop offset="0" stop-color="#cca78d"/>
      <stop offset="1" stop-color="#ac856b"/>
    </linearGradient>
  </defs>
  <path id="emergency" d="M17.011,20H3.155V18.714a1.838,1.838,0,0,1,1.732-1.928H15.279a1.838,1.838,0,0,1,1.732,1.928ZM10.083,4.571a.613.613,0,0,1-.578-.643V2.643a.581.581,0,1,1,1.155,0V3.928a.613.613,0,0,1-.578.643ZM5.593,6.642a.548.548,0,0,1-.408-.189l-.817-.909a.7.7,0,0,1,.014-.894.536.536,0,0,1,.8-.015L6,5.545a.7.7,0,0,1,.125.7A.581.581,0,0,1,5.593,6.642Zm8.981,0a.581.581,0,0,1-.533-.4.7.7,0,0,1,.125-.7l.816-.909a.536.536,0,0,1,.8.015.7.7,0,0,1,.014.894l-.816.91a.548.548,0,0,1-.408.188Zm-10.842,5H2.578a.647.647,0,0,1,0-1.286H3.732a.647.647,0,0,1,0,1.286Zm13.856,0H16.433a.647.647,0,0,1,0-1.286h1.155a.647.647,0,0,1,0,1.286ZM14.7,15.5V11a4.9,4.9,0,0,0-4.619-5.143A4.9,4.9,0,0,0,5.464,11v4.5ZM10.1,8.35a.576.576,0,0,1,.7-.462A3.071,3.071,0,0,1,12.88,10.2a.652.652,0,0,1-.414.784.575.575,0,0,1-.7-.461,1.843,1.843,0,0,0-1.244-1.385.588.588,0,0,1-.354-.3.707.707,0,0,1-.061-.489Z" transform="translate(-2 -2)" fill="url(#linear-gradient)"/>
</svg>
