<svg xmlns="http://www.w3.org/2000/svg" xmlns:xlink="http://www.w3.org/1999/xlink" width="45" height="45" viewBox="0 0 45 45">
  <defs>
    <linearGradient id="linear-gradient" x1="0.5" x2="0.5" y2="1" gradientUnits="objectBoundingBox">
      <stop offset="0" stop-color="#cca78d"/>
      <stop offset="1" stop-color="#ac856b"/>
    </linearGradient>
    <clipPath id="clip-path">
      <rect id="Rectangle_5123" data-name="Rectangle 5123" width="45" height="45" transform="translate(24 69)" stroke="#707070" stroke-width="1" fill="url(#linear-gradient)"/>
    </clipPath>
  </defs>
  <g id="ic_category_c" transform="translate(-24 -69)" clip-path="url(#clip-path)">
    <g id="Icons" transform="translate(26.696 69.821)">
      <g id="Rounded" transform="translate(-5.625 -3.75)">
        <g id="Maps">
          <g id="_-Round-_-Maps-_-category" data-name="-Round-/-Maps-/-category" transform="translate(0 0)">
            <g id="Group_29191" data-name="Group 29191">
              <path id="Path" d="M0,0H50.857V50.857H0Z" fill="none"/>
              <path id="_-Icon-Color" data-name="🔹-Icon-Color" d="M22.9,6.492a2.1,2.1,0,0,1,3.6,0l7.862,12.884a2.115,2.115,0,0,1-1.8,3.221H16.814a2.115,2.115,0,0,1-1.8-3.221ZM36.351,45.907a9.536,9.536,0,1,1,9.536-9.536A9.536,9.536,0,0,1,36.351,45.907ZM7.744,44.847a2.125,2.125,0,0,1-2.119-2.119V30.014a2.125,2.125,0,0,1,2.119-2.119H20.458a2.125,2.125,0,0,1,2.119,2.119V42.728a2.125,2.125,0,0,1-2.119,2.119Z" transform="translate(0.732 0.713)" fill="url(#linear-gradient)"/>
            </g>
          </g>
        </g>
      </g>
    </g>
  </g>
</svg>
