<svg xmlns="http://www.w3.org/2000/svg" xmlns:xlink="http://www.w3.org/1999/xlink" width="20" height="20" viewBox="0 0 20 20">
  <defs>
    <linearGradient id="linear-gradient" x1="0.5" x2="0.5" y2="1" gradientUnits="objectBoundingBox">
      <stop offset="0" stop-color="#cca78d"/>
      <stop offset="1" stop-color="#ac856b"/>
    </linearGradient>
    <clipPath id="clip-path">
      <rect id="Rectangle_5121" data-name="Rectangle 5121" width="20" height="20" transform="translate(162 20)" stroke="#707070" stroke-width="1" fill="url(#linear-gradient)"/>
    </clipPath>
  </defs>
  <g id="ic_interest" transform="translate(-162 -20)" clip-path="url(#clip-path)">
    <path id="_4938505381582807186" data-name="4938505381582807186" d="M12.272,3.43a.9.9,0,0,0-1.072.5L9.692,7.381A5.442,5.442,0,0,1,8.539,9.025a4.9,4.9,0,0,1-.936.728,2.557,2.557,0,0,1,.037.433v5.7a21.585,21.585,0,0,0,4.138.725,15.067,15.067,0,0,0,4.3-.443,1.639,1.639,0,0,0,1.232-1.291L18.285,10a.849.849,0,0,0-.832-1.015H14.159a1.7,1.7,0,0,1-1.675-1.977l.427-2.565A.9.9,0,0,0,12.272,3.43Zm-5.056,14.1a23.248,23.248,0,0,0,4.469.776,16.748,16.748,0,0,0,4.764-.482,3.337,3.337,0,0,0,2.524-2.614l.976-4.882a2.547,2.547,0,0,0-2.5-3.046H14.159l.427-2.565A2.6,2.6,0,0,0,9.645,3.254L8.137,6.7a3.752,3.752,0,0,1-.789,1.114,3.235,3.235,0,0,1-.576.457A2.538,2.538,0,0,0,5.093,7.64H2.547A2.547,2.547,0,0,0,0,10.186v5.942a2.547,2.547,0,0,0,2.547,2.547H5.093A2.543,2.543,0,0,0,7.216,17.535Zm-4.669-8.2a.849.849,0,0,0-.849.849v5.942a.849.849,0,0,0,.849.849H5.093a.847.847,0,0,0,.849-.849V10.186a.848.848,0,0,0-.849-.849Z" transform="translate(162 19.814)" fill="url(#linear-gradient)"/>
  </g>
</svg>
