<svg xmlns="http://www.w3.org/2000/svg" xmlns:xlink="http://www.w3.org/1999/xlink" width="18" height="18" viewBox="0 0 18 18">
  <defs>
    <clipPath id="clip-path">
      <rect id="Rectangle_5113" data-name="Rectangle 5113" width="18" height="18" transform="translate(421 95)" fill="#fff" stroke="#707070" stroke-width="1"/>
    </clipPath>
    <clipPath id="clip-path-2">
      <rect id="Rectangle_5111" data-name="Rectangle 5111" width="18" height="18" fill="#fff" stroke="#707070" stroke-width="1"/>
    </clipPath>
  </defs>
  <g id="ic_qmanagement" transform="translate(-421 -95)" clip-path="url(#clip-path)">
    <g id="ic_query_management" transform="translate(421 95)" clip-path="url(#clip-path-2)">
      <g id="_5518854191582985679" data-name="5518854191582985679" transform="translate(1.177 0.2)">
        <path id="Path_50406" data-name="Path 50406" d="M14.434,12.86c-.02-.131-.043-.259-.074-.387a5.517,5.517,0,0,1-1.779.018c.014.045.029.092.041.137a3.992,3.992,0,0,1,.153,1.266,4.064,4.064,0,0,1-.246,1.253,4.285,4.285,0,0,1-.263.568,4.077,4.077,0,0,1-1.851,1.714,3.885,3.885,0,0,1-.586.219,4.063,4.063,0,0,1-2.818-7.595,4,4,0,0,1,.6-.223c.077-.022.155-.041.234-.059,0-.674-.009-1.284-.011-1.748a5.778,5.778,0,0,0-2.171.809c-.081-.07-.16-.138-.241-.205-.221-.185-.444-.369-.674-.543L3.378,9.354c.156.243.322.478.491.712.061.086.122.171.185.255a5.755,5.755,0,0,0-.973,2.111c-.1.009-.209.016-.311.027-.288.023-.574.052-.861.092l-.07,1.863c.284.059.566.11.851.156.1.018.207.034.309.049A5.74,5.74,0,0,0,3.807,16.8c-.068.079-.138.16-.205.241-.185.221-.367.444-.541.674l1.268,1.369c.243-.156.48-.322.714-.489.086-.061.171-.124.255-.187a5.751,5.751,0,0,0,2.108.971c.007.1.016.209.025.313.025.288.054.574.1.86l1.863.072c.061-.284.111-.566.158-.851.018-.1.034-.207.05-.311a5.762,5.762,0,0,0,2.174-.807c.079.068.16.137.241.205.221.183.444.367.674.541l1.369-1.268c-.156-.245-.322-.48-.489-.714-.061-.086-.124-.171-.187-.257a5.743,5.743,0,0,0,.971-2.106c.1-.009.209-.016.313-.027.286-.025.574-.054.86-.094l.072-1.863c-.284-.061-.568-.111-.851-.158C14.641,12.893,14.537,12.877,14.434,12.86Z" transform="translate(-1.838 -3.021)" fill="#fff"/>
        <path id="Path_50407" data-name="Path 50407" d="M18.875,3.766a4.063,4.063,0,0,0-8.05.91c.007.21.037,5.631.037,5.631l2.661-1.939a4.064,4.064,0,0,0,5.353-4.6Zm-3.656,3.2a.463.463,0,1,1,.092-.5.464.464,0,0,1-.092.5Zm.5-2.605-.143.127a.694.694,0,0,0-.295.458c-.011.155-.02.316-.02.495a.092.092,0,0,1-.016.071s-.015.018-.074.016c-.037,0-.077,0-.114,0h-.2c-.112,0-.228,0-.34,0-.049,0-.063-.014-.063-.063a2.463,2.463,0,0,1,.12-1.02,1.226,1.226,0,0,1,.44-.468,1.683,1.683,0,0,0,.381-.35.545.545,0,0,0,.09-.6.694.694,0,0,0-.617-.334.739.739,0,0,0-.721.56c-.035.114-.045.121-.089.121a.813.813,0,0,1-.094-.009c-.19-.026-.383-.049-.576-.073-.069-.008-.079-.033-.073-.085a1.5,1.5,0,0,1,1.607-1.238,1.676,1.676,0,0,1,1.114.385,1.182,1.182,0,0,1,.419.878C16.454,3.709,16.067,4.05,15.715,4.361Z" transform="translate(-3.302 -0.476)" fill="#fff"/>
      </g>
    </g>
  </g>
</svg>
