<svg xmlns="http://www.w3.org/2000/svg" xmlns:xlink="http://www.w3.org/1999/xlink" width="45" height="45" viewBox="0 0 45 45">
  <defs>
    <linearGradient id="linear-gradient" x1="0.5" x2="0.5" y2="1" gradientUnits="objectBoundingBox">
      <stop offset="0" stop-color="#cca78d"/>
      <stop offset="1" stop-color="#ac856b"/>
    </linearGradient>
    <clipPath id="clip-path">
      <rect id="Rectangle_5113" data-name="Rectangle 5113" width="45" height="45" transform="translate(421 95)" stroke="#707070" stroke-width="1" fill="url(#linear-gradient)"/>
    </clipPath>
    <clipPath id="clip-path-2">
      <rect id="Rectangle_5111" data-name="Rectangle 5111" width="45" height="45" stroke="#707070" stroke-width="1" fill="url(#linear-gradient)"/>
    </clipPath>
  </defs>
  <g id="ic_qmanagement_c" transform="translate(-421 -95)" clip-path="url(#clip-path)">
    <g id="ic_query_management" transform="translate(421 95)" clip-path="url(#clip-path-2)">
      <g id="_5518854191582985679" data-name="5518854191582985679" transform="translate(2.941 0.501)">
        <path id="Path_50406" data-name="Path 50406" d="M33.328,20.114c-.049-.328-.108-.647-.184-.967a13.793,13.793,0,0,1-4.446.045c.036.112.072.229.1.342a9.979,9.979,0,0,1,.382,3.165,10.161,10.161,0,0,1-.616,3.134,10.713,10.713,0,0,1-.656,1.421,10.192,10.192,0,0,1-4.626,4.285,9.712,9.712,0,0,1-1.466.549A10.156,10.156,0,0,1,14.773,13.1a10.011,10.011,0,0,1,1.488-.558c.193-.054.387-.1.584-.148-.009-1.686-.022-3.21-.027-4.37a14.446,14.446,0,0,0-5.427,2.023c-.2-.175-.4-.346-.6-.513-.553-.463-1.111-.922-1.686-1.358l-3.417,3.17c.391.607.8,1.2,1.227,1.78.153.216.306.427.463.638a14.387,14.387,0,0,0-2.432,5.278c-.261.023-.522.04-.778.067-.719.058-1.434.13-2.154.229L1.838,24c.71.148,1.416.274,2.127.391.256.045.517.085.773.121a14.351,14.351,0,0,0,2.023,5.445c-.171.2-.346.4-.513.6-.463.553-.917,1.11-1.353,1.686l3.17,3.421c.607-.391,1.2-.8,1.785-1.223.216-.153.427-.31.638-.468A14.377,14.377,0,0,0,15.758,36.4c.018.261.04.522.063.782.063.719.135,1.434.238,2.149l4.658.18c.153-.71.279-1.416.4-2.127.045-.261.085-.517.126-.778a14.405,14.405,0,0,0,5.436-2.019c.2.171.4.342.6.513.553.459,1.111.917,1.686,1.353l3.421-3.17c-.391-.611-.8-1.2-1.223-1.785-.153-.216-.31-.427-.468-.643a14.357,14.357,0,0,0,2.428-5.265c.261-.022.522-.04.782-.067.715-.063,1.434-.135,2.149-.234l.18-4.658c-.71-.153-1.421-.279-2.127-.4C33.845,20.2,33.584,20.155,33.328,20.114Z" transform="translate(-1.838 4.484)" fill="url(#linear-gradient)"/>
        <path id="Path_50407" data-name="Path 50407" d="M30.954,8.7a10.159,10.159,0,0,0-20.126,2.276c.018.526.093,14.078.093,14.078l6.651-4.849A10.16,10.16,0,0,0,30.954,8.7Zm-9.141,8a1.156,1.156,0,1,1,.23-1.261,1.159,1.159,0,0,1-.23,1.261Zm1.243-6.513-.358.319a1.736,1.736,0,0,0-.737,1.146c-.029.387-.049.791-.049,1.237a.23.23,0,0,1-.04.177c-.008.01-.038.045-.186.04-.093,0-.192,0-.285,0H20.91c-.28,0-.57,0-.85,0-.123,0-.157-.035-.157-.157a6.156,6.156,0,0,1,.3-2.549,3.064,3.064,0,0,1,1.1-1.169,4.207,4.207,0,0,0,.953-.875,1.363,1.363,0,0,0,.226-1.489,1.735,1.735,0,0,0-1.543-.834,1.847,1.847,0,0,0-1.8,1.4c-.089.284-.114.3-.222.3a2.033,2.033,0,0,1-.236-.023c-.476-.065-.958-.123-1.439-.182-.172-.02-.2-.083-.182-.212.192-2.033,2.166-3.094,4.019-3.094a4.189,4.189,0,0,1,2.784.962,2.954,2.954,0,0,1,1.047,2.2C24.9,8.559,23.935,9.412,23.055,10.189Z" transform="translate(7.978 -0.476)" fill="url(#linear-gradient)"/>
      </g>
    </g>
  </g>
</svg>
