<svg xmlns="http://www.w3.org/2000/svg" xmlns:xlink="http://www.w3.org/1999/xlink" width="20" height="20" viewBox="0 0 20 20">
  <defs>
    <linearGradient id="linear-gradient" x1="0.5" x2="0.5" y2="1" gradientUnits="objectBoundingBox">
      <stop offset="0" stop-color="#cca78d"/>
      <stop offset="1" stop-color="#ac856b"/>
    </linearGradient>
    <clipPath id="clip-path">
      <rect id="Rectangle_5133" data-name="Rectangle 5133" width="20" height="20" transform="translate(201 20)" stroke="#707070" stroke-width="1" fill="url(#linear-gradient)"/>
    </clipPath>
  </defs>
  <g id="ic_review_solid" transform="translate(-201 -20)" clip-path="url(#clip-path)">
    <path id="_13487794321580594410" data-name="13487794321580594410" d="M17.566,9.324a1.989,1.989,0,0,0,.47-2,1.9,1.9,0,0,0-1.527-1.331l-3.476-.517a.368.368,0,0,1-.282-.211L11.185,2A1.871,1.871,0,0,0,9.517.908h0A1.856,1.856,0,0,0,7.818,2L6.252,5.277a.36.36,0,0,1-.282.211L2.5,6.028A1.879,1.879,0,0,0,.983,7.359a1.981,1.981,0,0,0,.478,2l2.576,2.544a.384.384,0,0,1,.11.337l-.587,3.6a1.981,1.981,0,0,0,.783,1.91,1.8,1.8,0,0,0,1.1.376,1.879,1.879,0,0,0,.885-.227L9.455,16.2a.352.352,0,0,1,.352,0l3.132,1.691a1.824,1.824,0,0,0,1.981-.157,2,2,0,0,0,.783-1.918l-.6-3.594a.4.4,0,0,1,.1-.344Z" transform="translate(201.49 20.48)" fill="url(#linear-gradient)"/>
  </g>
</svg>
