<svg xmlns="http://www.w3.org/2000/svg" xmlns:xlink="http://www.w3.org/1999/xlink" width="18" height="18" viewBox="0 0 18 18">
  <defs>
    <clipPath id="clip-path">
      <rect id="Rectangle_4707" data-name="Rectangle 4707" width="18" height="18" transform="translate(0.52 2.113)" fill="#fff" stroke="#707070" stroke-width="1"/>
    </clipPath>
  </defs>
  <g id="ic_subscription" transform="translate(-0.52 -2.113)" clip-path="url(#clip-path)">
    <path id="Subtraction_18" data-name="Subtraction 18" d="M3.187,17.928h0A3.314,3.314,0,0,1,.023,15.016l-.017-.195L0,14.628V13.05a.865.865,0,0,1,.629-.832l.114-.026.122-.01h1.98V.889a.878.878,0,0,1,.079-.36A.865.865,0,0,1,3.146.233l.1-.074L3.358.1a.844.844,0,0,1,.35-.077h.007A.871.871,0,0,1,4.073.1l.113.061.1.076L5.951,1.71,7.621.221A.87.87,0,0,1,8,.023.86.86,0,0,1,8.2,0a.871.871,0,0,1,.232.032l.117.042.128.07.1.076L10.44,1.709,12.106.221A.857.857,0,0,1,12.678,0a.89.89,0,0,1,.248.037l.121.044.116.063.1.076,1.666,1.491L16.594.24a.864.864,0,0,1,.574-.217.877.877,0,0,1,.116.008l.123.025L17.525.1A.855.855,0,0,1,18,.639l.03.125.009.124v13.74a3.308,3.308,0,0,1-3.115,3.3h-.08ZM1.733,13.916v.712A1.567,1.567,0,0,0,3.01,16.173l.148.02L3.3,16.2h8.52l-.017-.03a3.28,3.28,0,0,1-.346-1.057l-.025-.226-.011-.258v-.708l-9.691,0ZM6.947,7.785l-.123.009L6.71,7.82a.866.866,0,0,0,.218,1.7h7.029l.121-.009.115-.026a.866.866,0,0,0-.218-1.7H6.947Zm0-3.017-.122.009L6.713,4.8a.865.865,0,0,0,.217,1.7h4.006l.127-.014.115-.026a.866.866,0,0,0-.237-1.7Z" transform="translate(0.502 2.149)" fill="#fff"/>
  </g>
</svg>
