<svg xmlns="http://www.w3.org/2000/svg" xmlns:xlink="http://www.w3.org/1999/xlink" width="45" height="45" viewBox="0 0 45 45">
  <defs>
    <linearGradient id="linear-gradient" x1="0.5" x2="0.5" y2="1" gradientUnits="objectBoundingBox">
      <stop offset="0" stop-color="#cca78d"/>
      <stop offset="1" stop-color="#ac856b"/>
    </linearGradient>
    <clipPath id="clip-path">
      <rect id="Rectangle_4707" data-name="Rectangle 4707" width="45" height="45" transform="translate(0.499 2.093)" stroke="#707070" stroke-width="1" fill="url(#linear-gradient)"/>
    </clipPath>
  </defs>
  <g id="ic_subscription_c" transform="translate(-0.499 -2.093)" clip-path="url(#clip-path)">
    <path id="Subtraction_18" data-name="Subtraction 18" d="M7.95,44.723h0A8.267,8.267,0,0,1,.057,37.46l-.042-.485L0,36.492V32.555a2.157,2.157,0,0,1,1.57-2.074l.284-.064.3-.026H7.1V2.217a2.189,2.189,0,0,1,.2-.9A2.158,2.158,0,0,1,7.849.582L8.1.4,8.376.25A2.106,2.106,0,0,1,9.249.057h.016a2.173,2.173,0,0,1,.9.193L10.443.4l.249.189,4.152,3.675L19.012.552a2.169,2.169,0,0,1,.951-.495A2.146,2.146,0,0,1,20.453,0a2.173,2.173,0,0,1,.58.079l.292.105.318.175.249.189,4.152,3.715L30.2.552A2.138,2.138,0,0,1,31.626,0a2.22,2.22,0,0,1,.618.092l.3.11.289.158.25.189,4.157,3.719L41.4.6A2.156,2.156,0,0,1,42.828.056a2.188,2.188,0,0,1,.289.019l.306.062.3.113a2.134,2.134,0,0,1,1.175,1.345l.075.312.022.31V36.492a8.251,8.251,0,0,1-7.771,8.227h-.2ZM4.323,34.714v1.777a3.908,3.908,0,0,0,3.186,3.853l.369.049.36.015H29.494l-.042-.075a8.183,8.183,0,0,1-.863-2.637l-.062-.565-.028-.643V34.723L4.323,34.714ZM17.329,19.42l-.306.022-.285.065a2.159,2.159,0,0,0,.545,4.249H34.817l.3-.023.288-.064a2.16,2.16,0,0,0-.543-4.25H17.329Zm.007-7.526-.3.022-.284.066a2.159,2.159,0,0,0,.542,4.249h9.992L27.6,16.2l.287-.065a2.159,2.159,0,0,0-.59-4.236Z" transform="translate(0.504 2.231)" fill="url(#linear-gradient)"/>
  </g>
</svg>
