<svg xmlns="http://www.w3.org/2000/svg" xmlns:xlink="http://www.w3.org/1999/xlink" width="18" height="18" viewBox="0 0 18 18">
  <defs>
    <clipPath id="clip-path">
      <rect id="Rectangle_5131" data-name="Rectangle 5131" width="18" height="18" transform="translate(5333.288 1075.288)" fill="#fff" stroke="#707070" stroke-width="1"/>
    </clipPath>
  </defs>
  <g id="ic_world_tmarshall" transform="translate(-5333.288 -1075.288)" clip-path="url(#clip-path)">
    <g id="Group_29193" data-name="Group 29193" transform="translate(5332.985 1075.203)">
      <path id="Subtraction_20" data-name="Subtraction 20" d="M12.785,8.833h-.83c-2.431,0-5.83-.006-8.216-.036V5.328a.445.445,0,1,0-.89,0V8.784C1.656,8.763.985,8.736.854,8.7a9.7,9.7,0,0,1-.81-2.941c0-.034-.368-3.38,1.044-4.361A10.49,10.49,0,0,1,5.1.149,1.007,1.007,0,0,1,5.535.026.424.424,0,0,1,5.85.149,21.984,21.984,0,0,0,7.656,1.4a1.016,1.016,0,0,0,.546.184A.707.707,0,0,0,8.678,1.4C9.2,1.043,10.313.157,10.324.149A.535.535,0,0,1,10.7,0a.631.631,0,0,1,.192.031c.075.024.268.074.535.142A21.423,21.423,0,0,1,15.233,1.4c.533.206,1.154,2.241.912,4.361a22.151,22.151,0,0,1-.508,3.065H15.15l-1.476,0v-3.5a.445.445,0,1,0-.889,0v3.5Z" transform="translate(0 9.338)" fill="#fff"/>
      <path id="Path_50423" data-name="Path 50423" d="M5398.155,973.036l-1.627-1.192v-.731a4.47,4.47,0,0,0,3.244,0,3.6,3.6,0,0,1,0,.731Z" transform="translate(-5390.048 -962.956)" fill="#fff"/>
      <rect id="Rectangle_5130" data-name="Rectangle 5130" width="6.468" height="6.762" rx="3" transform="translate(4.878 1)" fill="#fff"/>
    </g>
    <path id="Path_50424" data-name="Path 50424" d="M5657.583,909.386l3.4-2.074s-2.847-1.736-3.783-2.256a.171.171,0,0,0-.25.16c0,2.336.013,6.439.013,6.439s.278.5.624,0C5657.61,909.969,5657.583,909.386,5657.583,909.386Z" transform="translate(-309.776 171.493)" fill="#fff"/>
  </g>
</svg>
